<svg width="22" height="21" viewBox="0 0 22 21" fill="none" xmlns="http://www.w3.org/2000/svg">
<path fill-rule="evenodd" clip-rule="evenodd" d="M11 0.894775C5.41699 0.894775 0.894745 5.42322 0.894745 11C0.894745 15.4665 3.79171 19.2505 7.80528 20.5904C8.30775 20.6835 8.49385 20.3733 8.49385 20.1004C8.49385 19.8584 8.48765 19.2257 8.48145 18.382C5.67133 18.99 5.0758 17.0297 5.0758 17.0297C4.61676 15.8635 3.953 15.5533 3.953 15.5533C3.0349 14.9268 4.02123 14.9392 4.02123 14.9392C5.03238 15.0136 5.57207 15.9813 5.57207 15.9813C6.47156 17.526 7.93555 17.0793 8.51246 16.8188C8.60551 16.1674 8.86605 15.7208 9.15141 15.4665C6.90579 15.2121 4.54852 14.3436 4.54852 10.4728C4.54852 9.36856 4.93933 8.46907 5.59068 7.76189C5.48523 7.50755 5.13784 6.47779 5.68994 5.08824C5.68994 5.08824 6.5398 4.8153 8.46904 6.1242C9.27547 5.90088 10.1377 5.78922 11 5.78302C11.8561 5.78922 12.7245 5.90088 13.531 6.1242C15.4602 4.8153 16.3101 5.08824 16.3101 5.08824C16.8622 6.47779 16.5148 7.50755 16.4093 7.76189C17.0545 8.46907 17.4453 9.36856 17.4453 10.4728C17.4453 14.3561 15.0818 15.2059 12.83 15.4602C13.1898 15.7704 13.5186 16.3908 13.5186 17.3337C13.5186 18.686 13.5062 19.7716 13.5062 20.1066C13.5062 20.3795 13.6861 20.6897 14.2009 20.5904C18.2145 19.2505 21.1053 15.4665 21.1053 11.0062C21.1053 5.42322 16.583 0.894775 11 0.894775Z" fill="#191717"/>
</svg>
